<?xml version="1.0" encoding="UTF-8" standalone="no"?>
<!-- Created with Inkscape (http://www.inkscape.org/) -->

<svg
   xmlns:dc="http://purl.org/dc/elements/1.1/"
   xmlns:cc="http://creativecommons.org/ns#"
   xmlns:rdf="http://www.w3.org/1999/02/22-rdf-syntax-ns#"
   xmlns:svg="http://www.w3.org/2000/svg"
   xmlns="http://www.w3.org/2000/svg"
   version="1.1"
   width="70"
   height="70"
   id="svg3041"
   xml:space="preserve"><metadata
     id="metadata3073"><rdf:RDF><cc:Work
         rdf:about=""><dc:format>image/svg+xml</dc:format><dc:type
           rdf:resource="http://purl.org/dc/dcmitype/StillImage" /><dc:title></dc:title></cc:Work></rdf:RDF></metadata><defs
     id="defs3071" /><g
     transform="translate(-35.039071,-34.978547)"
     id="iconcar_x5F_ca"><g
       id="g3044"><path
         d="m -0.125,-21.6875 -10.84375,1 0,2.5 10.84375,-1 11,1 0,-2.5 -11,-1 z m 0,3 -8.21875,0.5625 0.15625,10.9375 16.3125,0 0.125,-10.9375 -8.375,-0.5625 z m -8.75,0.65625 -3.09375,0.34375 0,10.5 2.25,0 0.84375,-10.84375 z M 8.78125,-18 9.625,-7.1875 l 2.25,0 0,-10.5 L 8.78125,-18 z m -25.84375,11.96875 0,2.84375 3.40625,0 0,-2.84375 -3.40625,0 z m 5.96875,0 0,8.75 0,0.34375 0,7.75 22.125,0 0,-7.75 0,-0.34375 0,-8.75 -2,1 -18,0 -2.125,-1 z m 24.6875,0 0,2.84375 3.40625,0 0,-2.84375 -3.40625,0 z m -25.5625,18.28125 0,6.5 3.09375,0.3125 -0.84375,-6.8125 -2.25,0 z m 3.78125,0 -0.15625,6.9375 L 0.0625,19.75 8.25,19.1875 8.125,12.25 l -16.3125,0 z m 17.8125,0 -0.84375,6.8125 3.09375,-0.3125 0,-6.5 -2.25,0 z m -20.59375,7 0,1.5 11.03125,1 10.8125,-1 0,-1.5 -10.8125,1 -11.03125,-1 z"
         transform="translate(35.039071,34.978547)"
         id="rect3046" /></g></g><g
     id="Ebene_1" /></svg>