<?xml version="1.0" encoding="UTF-8" standalone="no"?>
<!-- Created with Inkscape (http://www.inkscape.org/) -->

<svg
   xmlns:dc="http://purl.org/dc/elements/1.1/"
   xmlns:cc="http://creativecommons.org/ns#"
   xmlns:rdf="http://www.w3.org/1999/02/22-rdf-syntax-ns#"
   xmlns:svg="http://www.w3.org/2000/svg"
   xmlns="http://www.w3.org/2000/svg"
   version="1.1"
   width="70"
   height="70"
   id="svg2"
   xml:space="preserve"><metadata
     id="metadata13"><rdf:RDF><cc:Work
         rdf:about=""><dc:format>image/svg+xml</dc:format><dc:type
           rdf:resource="http://purl.org/dc/dcmitype/StillImage" /><dc:title></dc:title></cc:Work></rdf:RDF></metadata><defs
     id="defs11" /><g
     transform="translate(-35.037076,-35.037077)"
     id="iconman_x5F_at_x5F_ca"><path
       d="m -0.03125,-24.15625 -6.75,9.46875 c 2.051,-0.946 4.342,-1.46875 6.75,-1.46875 2.407,0 4.66875,0.52275 6.71875,1.46875 l -6.71875,-9.46875 z m 0,11.25 c -7.111,0 -12.875,5.764 -12.875,12.875 0,7.111 5.764,12.875 12.875,12.875 7.111,0 12.875,-5.764 12.875,-12.875 0,-7.111 -5.764,-12.875 -12.875,-12.875 z M -0.125,-11.4375 8.21875,0.375 0.1875,-2.34375 8.21875,9.03125 -0.125,6.1875 l -8.15625,2.84375 7.875,-11.375 -7.875,2.71875 8.15625,-11.8125 z"
       transform="translate(35.037076,35.037077)"
       id="path5" /></g></svg>