<?xml version="1.0" encoding="UTF-8" standalone="no"?>
<!-- Created with Inkscape (http://www.inkscape.org/) -->

<svg
   xmlns:dc="http://purl.org/dc/elements/1.1/"
   xmlns:cc="http://creativecommons.org/ns#"
   xmlns:rdf="http://www.w3.org/1999/02/22-rdf-syntax-ns#"
   xmlns:svg="http://www.w3.org/2000/svg"
   xmlns="http://www.w3.org/2000/svg"
   version="1.1"
   width="70"
   height="70"
   id="svg2"
   xml:space="preserve"><metadata
     id="metadata14"><rdf:RDF><cc:Work
         rdf:about=""><dc:format>image/svg+xml</dc:format><dc:type
           rdf:resource="http://purl.org/dc/dcmitype/StillImage" /><dc:title></dc:title></cc:Work></rdf:RDF></metadata><defs
     id="defs12" /><g
     id="g2991"><g
       transform="matrix(0.93203883,0,0,0.93203883,-32.309918,-28.780257)"
       id="iconmanrecon_x5F_ca"><path
         d="m 34.663594,6.7554503 -6.739258,9.4886077 c 2.051,-0.946 4.331258,-1.475261 6.739258,-1.475261 2.407,0 4.689258,0.529261 6.739258,1.475261 L 34.663594,6.7554503 z m 0,11.2656257 c -7.111,0 -12.875,5.765 -12.875,12.875001 0,7.111 5.764,12.875 12.875,12.875 7.111,0 12.875001,-5.764 12.875001,-12.875 0,-7.110001 -5.764001,-12.875001 -12.875001,-12.875001 z m 5.263998,3.352865 c 1.781,0.989 3.270138,2.477138 4.258138,4.258138 L 29.399597,40.418212 c -1.781,-0.987999 -3.269138,-2.478138 -4.258139,-4.258138 L 39.927592,21.373941 z"
         id="path5"
         style="fill:#ffffff" /></g></g><g
     id="Ebene_1" /></svg>