<?xml version="1.0" encoding="UTF-8" standalone="no"?>
<!-- Created with Inkscape (http://www.inkscape.org/) -->

<svg
   xmlns:dc="http://purl.org/dc/elements/1.1/"
   xmlns:cc="http://creativecommons.org/ns#"
   xmlns:rdf="http://www.w3.org/1999/02/22-rdf-syntax-ns#"
   xmlns:svg="http://www.w3.org/2000/svg"
   xmlns="http://www.w3.org/2000/svg"
   version="1.1"
   width="70"
   height="70"
   id="svg2"
   xml:space="preserve"><metadata
     id="metadata16"><rdf:RDF><cc:Work
         rdf:about=""><dc:format>image/svg+xml</dc:format><dc:type
           rdf:resource="http://purl.org/dc/dcmitype/StillImage" /><dc:title></dc:title></cc:Work></rdf:RDF></metadata><defs
     id="defs14" /><g
     id="iconmanmg_x5F_ca"><path
       d="m 0,-22.46875 -6.28125,8.84375 c 1.9116116,-0.881709 4.0369005,-1.40625 6.28125,-1.40625 2.2434174,0 4.3705704,0.524541 6.28125,1.40625 L 0,-22.46875 z M 0,-12 c -6.6277282,0 -12,5.3732038 -12,12 0,6.6277279 5.3722719,12 12,12 C 6.6277282,12 12,6.6277279 12,0 12,-6.6267962 6.6277281,-12 0,-12 z m -0.0625,2 7.75,11.03125 -5.625,-2.5625 0,11.46875 C 1.3905,10.077306 0.71300966,10.15625 0,10.15625 c -0.76240772,0 -1.5038762,-0.09062 -2.21875,-0.25 l 0,-11.4375 L -7.6875,1.03125 -0.0625,-10 z"
       id="path5"
       style="fill:#ffffff" /></g><g
     id="Ebene_1" /></svg>