<?xml version="1.0" encoding="UTF-8" standalone="no"?>
<!-- Created with Inkscape (http://www.inkscape.org/) -->

<svg
   xmlns:dc="http://purl.org/dc/elements/1.1/"
   xmlns:cc="http://creativecommons.org/ns#"
   xmlns:rdf="http://www.w3.org/1999/02/22-rdf-syntax-ns#"
   xmlns:svg="http://www.w3.org/2000/svg"
   xmlns="http://www.w3.org/2000/svg"
   version="1.1"
   width="70"
   height="70"
   id="svg2"
   xml:space="preserve"><metadata
     id="metadata34"><rdf:RDF><cc:Work
         rdf:about=""><dc:format>image/svg+xml</dc:format><dc:type
           rdf:resource="http://purl.org/dc/dcmitype/StillImage" /><dc:title></dc:title></cc:Work></rdf:RDF></metadata><defs
     id="defs32" /><g
     transform="translate(-35,-40.264832)"
     id="iconapc_x5F_ca"><g
       id="g5"><path
         d="m -7.9375,-33 -3.125,5 0,18.09375 9.5625,0 0,-3.5 3,0 0,3.5 9.5625,0 0,-18.09375 -3,-5 -16,0 z m 12.53125,9.15625 c 2.233,0 4.0625,1.79725 4.0625,4.03125 0,2.232 -1.8295,4.0625 -4.0625,4.0625 -2.234,0 -4.03125,-1.8305 -4.03125,-4.0625 0.001,-2.235 1.79725,-4.03125 4.03125,-4.03125 z m -18.53125,0.1875 0,10.125 1.75,0 0,-10.125 -1.75,0 z m 26.125,0 0,10.125 1.75,0 0,-10.125 -1.75,0 z M 4.59375,-22.125 c -1.2768824,0 -2.3125,1.035618 -2.3125,2.3125 0,1.276882 1.0356176,2.3125 2.3125,2.3125 1.2768824,0 2.3125,-1.035618 2.3125,-2.3125 0,-1.276882 -1.0356176,-2.3125 -2.3125,-2.3125 z m -5.09375,9.59375 0,9 C -2.238,-3.28925 -3.5625,-1.803 -3.5625,0 -3.5625,1.975 -1.973,3.5625 0,3.5625 1.975,3.5625 3.5625,1.974 3.5625,0 3.5625,-1.804 2.239,-3.28925 0.5,-3.53125 l 0,-9 -1,0 z m -10.5625,3.78125 0,8.75 0,0.34375 0,17.75 22.125,0 0,-17.75 0,-0.34375 0,-8.75 -2,1 -7.5625,0 0,2.34375 C 3.877,-4.74925 5.625,-2.585 5.625,0 5.625,3.107 3.106,5.625 0,5.625 -3.105,5.625 -5.625,3.107 -5.625,0 c 0,-2.585 1.749,-4.74925 4.125,-5.40625 l 0,-2.34375 -7.4375,0 -2.125,-1 z m -2.875,0.4375 0,10.09375 1.75,0 0,-10.09375 -1.75,0 z m 26.125,0 0,10.09375 1.75,0 0,-10.09375 -1.75,0 z m -26.125,13.46875 0,10.125 1.75,0 0,-10.125 -1.75,0 z m 26.125,0 0,10.125 1.75,0 0,-10.125 -1.75,0 z m -24,14.375 0.8125,2.9375 22,0 0.8125,-2.9375 -23.625,0 z"
         transform="translate(35,40.264832)"
         id="polygon7" /></g></g><g
     id="Ebene_1" /></svg>