<?xml version="1.0" encoding="UTF-8" standalone="no"?>
<!-- Created with Inkscape (http://www.inkscape.org/) -->

<svg
   xmlns:dc="http://purl.org/dc/elements/1.1/"
   xmlns:cc="http://creativecommons.org/ns#"
   xmlns:rdf="http://www.w3.org/1999/02/22-rdf-syntax-ns#"
   xmlns:svg="http://www.w3.org/2000/svg"
   xmlns="http://www.w3.org/2000/svg"
   version="1.1"
   width="70"
   height="70"
   id="svg2"
   xml:space="preserve"><metadata
     id="metadata20"><rdf:RDF><cc:Work
         rdf:about=""><dc:format>image/svg+xml</dc:format><dc:type
           rdf:resource="http://purl.org/dc/dcmitype/StillImage" /><dc:title></dc:title></cc:Work></rdf:RDF></metadata><defs
     id="defs18" /><g
     transform="translate(-0.12453019,-0.16385552)"
     id="iconquad_x5F_ca"><g
       id="g5"><path
         d="m 0.14830501,-14.051907 c -3.95200001,0 -4.84375001,6.8437502 -4.84375001,6.8437502 l 2.46875,0 c 0.469,-1.176 1.35,-2 2.37500001,-2 1.02499999,0 1.90599999,0.824 2.37499999,2 l 2.46875,0 c 0,0 -0.89175,-6.8437502 -4.84374999,-6.8437502 z m -8.90625001,2.34375 c -0.553,0 -1.0000002,0.447 -1.0000002,1 l 0,7.625 c 0,0.553 0.4470002,1 1.0000002,1 l 1.0937501,0 c -0.154,0.418 -0.23325,0.81225 -0.28125,1.15625003 l -2.9062501,0 0,2.84374997 3.4062501,0 0,-0.99999997 c 0.094,0.025 0.17925,0.015 0.28125,0 0.411,-0.056 0.71225,-0.43375 0.65625,-0.84375 -0.002,-0.013 -0.1305,-1.14825003 0.5624999,-2.28125003 0.229,-0.129 0.39775,-0.33375 0.46875,-0.59375 0.253,-0.271 0.537,-0.5409998 0.875,-0.7499998 l 0,1.0624998 c 0,0.542 0.43175,0.984 0.96875,1 -0.631,1.30300003 -0.96875,2.96025 -0.96875,4.7812501 0,0.249 0.02125,0.443 0.03125,0.625 l -2.6874999,0 c -0.349,0 -0.625,0.276 -0.625,0.625 l 0,0.21875 c 0,0.349 0.276,0.625 0.625,0.625 l 2.6562499,0 0,7.5312499 c 0,0.553 0.448,1 1,1 l 1.53125,0 0,2.03125 c 0,0.349 0.276,0.625 0.625,0.625 l 3.1875,0 c 0.348,0 0.625,-0.276 0.625,-0.625 l 0,-2.03125 1.53125,0 c 0.553,0 1,-0.447 1,-1 l 0,-7.5312499 2.65625,0 c 0.349,0 0.625,-0.276 0.625,-0.625 l 0,-0.21875 c 0,-0.349 -0.276,-0.625 -0.625,-0.625 l -2.6875,0 c 0.01,-0.182 0.03125,-0.376 0.03125,-0.625 0,-1.8210001 -0.33775,-3.50950007 -0.96875,-4.8125001 0.538,-0.016 0.96875,-0.42675 0.96875,-0.96875 l 0,-1.0624998 c 0.338,0.209 0.622,0.4487498 0.875,0.7187498 0.071,0.26 0.23875,0.495 0.46875,0.625 0.692,1.125 0.5685,2.23025003 0.5625,2.28125003 -0.056,0.411 0.24525,0.78875 0.65625,0.84375 0.035,0.005 0.05875,0.03125 0.09375,0.03125 0.067,0 0.1245,-0.0445 0.1875,-0.0625 l 0,1.03124997 3.40625,0 0,-2.84374997 -2.90625,0 C 8.194055,-1.271907 8.113805,-1.665157 7.960805,-2.083157 l 1.09375,0 c 0.553,0 1,-0.447 1,-1 l 0,-7.625 c 0,-0.553 -0.447,-1 -1,-1 l -2.34375,0 c -0.553,0 -1,0.447 -1,1 l 0,5.9375002 c -0.936,-0.587 -2.08275,-0.9995 -3.46875,-1.1875 -0.197,-0.973 -1.06275,-1.6875 -2.09374999,-1.6875 -1.03100001,0 -1.89675001,0.7145 -2.09375001,1.6875 -1.387,0.188 -2.53375,0.6005 -3.46875,1.1875 l 0,-5.9375002 c 0,-0.553 -0.447,-1 -0.9999999,-1 l -2.3437501,0 z m 8.87500001,10.375 c 0.832,0 1.49999999,0.66800003 1.49999999,1.50000003 0,0.832 -0.66899999,1.49999997 -1.49999999,1.49999997 -0.83200001,0 -1.50000001,-0.66799997 -1.50000001,-1.49999997 0,-0.832 0.668,-1.50000003 1.50000001,-1.50000003 z M -8.757945,6.1980931 c -0.552,0 -1.0000002,0.447 -1.0000002,1 l 0,7.6562499 c 0,0.553 0.4480002,1 1.0000002,1 l 2.3437501,0 c 0.5519999,0 0.9999999,-0.447 0.9999999,-1 l 0,-7.6562499 c 0,-0.553 -0.448,-1 -0.9999999,-1 l -2.3437501,0 z m 15.46875,0 c -0.553,0 -1,0.447 -1,1 l 0,7.6562499 c 0,0.553 0.447,1 1,1 l 2.34375,0 c 0.553,0 1,-0.447 1,-1 l 0,-7.6562499 c 0,-0.553 -0.447,-1 -1,-1 l -2.34375,0 z"
         id="path7" /></g></g><g
     id="Ebene_1" /></svg>