<?xml version="1.0" encoding="UTF-8" standalone="no"?>
<!-- Created with Inkscape (http://www.inkscape.org/) -->

<svg
   xmlns:dc="http://purl.org/dc/elements/1.1/"
   xmlns:cc="http://creativecommons.org/ns#"
   xmlns:rdf="http://www.w3.org/1999/02/22-rdf-syntax-ns#"
   xmlns:svg="http://www.w3.org/2000/svg"
   xmlns="http://www.w3.org/2000/svg"
   version="1.1"
   width="70"
   height="70"
   id="svg2"
   xml:space="preserve"><metadata
     id="metadata12"><rdf:RDF><cc:Work
         rdf:about=""><dc:format>image/svg+xml</dc:format><dc:type
           rdf:resource="http://purl.org/dc/dcmitype/StillImage" /><dc:title></dc:title></cc:Work></rdf:RDF></metadata><defs
     id="defs10" /><g
     id="iconheli_x5F_ca"><path
       d="m 12.89234,10.436334 -3.6579995,-1.9120004 -1.859,-1.859 -0.896,-0.896 c 0.218,-0.589 0.422,-1.269 0.604,-2.091 h 10e-4 l 2.4379997,1 1.9999998,-6.1049999 -3.2849995,-5.0000001 c 0.008,-0.363 0.012,-0.729 0.014,-1.097 L 20.37534,-19.647667 l 6.991,-6.992 -1.587,-1.588 -15.347,15.348 -1.9119995,3.6580006 -0.278,0.278 c -0.221,-11.7970006 -3.825,-21.1780006 -8.23900002,-21.1780006 -4.41299998,0 -8.01699998,9.38 -8.23899998,21.1770006 L -19.65166,-20.361667 h -0.001 l -6.991,-6.99 -1.588,1.585 15.347,15.348 3.6580005,1.9120006 0.984,0.982 c 0.002,0.368 0.005,0.734 0.013,1.098 l -3.2850005,6.00000012 2.0000005,5.10499988 2.438,-1 h 10e-4 c 0.182,0.822 0.386,1.503 0.604,2.092 L -20.36566,19.663333 l -6.991,6.994 1.588,1.586 15.346,-15.346 1.9120005,-3.6579994 1.858,-1.859 0.609,-0.609 c 1.165,2.271 2.716,2.437 4.464,3.3570004 v 17.915999 l -6.667,4.668 v 3.322 l 8.26499998,-1 8.23500002,1 v -3.322 l -6.667,-4.668 V 10.128334 c 1.748,-0.9210004 3.3,-1.0870004 4.464,-3.3580004 L 19.65834,20.378333 l 6.993,6.992 1.587,-1.588 -15.346,-15.345999 z M 3.0273405,0.00933372 c 0,0.65199997 -0.211,1.25299988 -0.563,1.74699988 l -0.837,-0.83799994 c 0.151,-0.26999997 0.245,-0.57699994 0.245,-0.90899994 0,-0.332 -0.094,-0.63899995 -0.246,-0.90899995 l 0.838,-0.83800017 c 0.352,0.4940001 0.563,1.09400017 0.563,1.74700012 z M 1.1753404,-26.711667 c 1.8460001,0.791 3.3050001,2.408 3.7810001,5.756 H 1.1753404 v -5.756 z m -2.3439999,0 v 5.756 h -3.781 c 0.476,-3.348 1.936,-4.963 3.781,-5.756 z m 1.17199998,23.6970006 c 0.65199996,0 1.25300002,0.211 1.74700002,0.563 l -0.83700011,0.838 c -0.27099995,-0.152 -0.57799991,-0.246 -0.90999991,-0.246 -0.332,0 -0.639,0.094 -0.90900001,0.245 l -0.83699997,-0.837 c 0.494,-0.352 1.09399998,-0.563 1.74599998,-0.563 z M -3.0206595,0.00933372 c 0,-0.65199995 0.212,-1.25400002 0.563,-1.74800012 l 0.837,0.83800017 c -0.152,0.271 -0.246,0.57799995 -0.246,0.90999995 0,0.332 0.094,0.63999997 0.246,0.90999994 l -0.837,0.83799994 c -0.351,-0.495 -0.563,-1.09599991 -0.563,-1.74799988 z M 0.00334048,3.0343336 c -0.652,0 -1.25299998,-0.212 -1.74699998,-0.563 l 0.83699997,-0.837 c 0.27100001,0.152 0.57800001,0.246 0.91000001,0.246 0.333,0 0.64099996,-0.094 0.91099991,-0.247 l 0.83700011,0.837 c -0.494,0.352 -1.09500006,0.564 -1.74800002,0.564 z"
       id="path5" /></g><g
     id="Ebene_1" /></svg>