<?xml version="1.0" encoding="UTF-8" standalone="no"?>
<!-- Created with Inkscape (http://www.inkscape.org/) -->

<svg
   xmlns:dc="http://purl.org/dc/elements/1.1/"
   xmlns:cc="http://creativecommons.org/ns#"
   xmlns:rdf="http://www.w3.org/1999/02/22-rdf-syntax-ns#"
   xmlns:svg="http://www.w3.org/2000/svg"
   xmlns="http://www.w3.org/2000/svg"
   version="1.1"
   width="70"
   height="70"
   id="svg2"
   xml:space="preserve"><metadata
     id="metadata20"><rdf:RDF><cc:Work
         rdf:about=""><dc:format>image/svg+xml</dc:format><dc:type
           rdf:resource="http://purl.org/dc/dcmitype/StillImage" /><dc:title></dc:title></cc:Work></rdf:RDF></metadata><defs
     id="defs18" /><g
     id="iconshiparmed_x5F_ca"><g
       id="g5"><ellipse
         cx="39.577999"
         cy="64.109001"
         rx="1.221"
         ry="1.176"
         id="ellipse7" /><ellipse
         cx="30.424"
         cy="64.109001"
         rx="1.22"
         ry="1.176"
         id="ellipse9" /><path
         d="m 0.3291121,-33.920887 c -2.318,0 -13.7500001,13.07125 -13.7500001,42.7812488 0,3.4790012 4.6562501,25.2187512 4.6562501,25.2187512 l 16.6875,0 c 0,0 5.6562499,-19.76975 5.6562499,-25.2187512 0,-29.9519988 -10.9309999,-42.7812488 -13.2499999,-42.7812488 z m -1.75,5.90625 3,0 0,8 c 2.377,0.657 4.125,2.81925 4.125,5.40625 0,3.105 -2.519,5.624999 -5.625,5.624999 -3.105,10e-4 -5.625,-2.519999 -5.625,-5.624999 0,-2.587 1.749,-4.74925 4.125,-5.40625 l 0,-8 z m 1.00000008,0.875 0,9 c -1.73800008,0.241 -3.06250008,1.72625 -3.06250008,3.53125 0,1.973 1.5895,3.5625 3.5625,3.5625 1.975,0 3.5625,-1.5905 3.5625,-3.5625 0,-1.806 -1.3235,-3.29025 -3.0625,-3.53125 l 0,-9 -0.99999992,0 z m -7.53125008,25.8749991 7.28125008,0 0,4.2499997 -5.90625008,0 -0.90625,7.7812512 -1.46875,0 1,-12.0312509 z m 8.78125003,0 7.28124997,0 1,12.0312509 -1.46875,0 -0.90625,-7.7812512 -5.90624997,0 0,-4.2499997 z m -9.78125003,13.9687509 1,0 0,4.84375 -1,-4.84375 z m 2.09375,0 1.40625,0 0,9.6875 -1.40625,0 0,-9.6875 z m 2.46875,0 1.4375,0 0,9.6875 -1.4375,0 0,-9.6875 z m 2.5,0 1.43750008,0 0,9.6875 -1.43750008,0 0,-9.6875 z m 2.5,0 1.4375,0 0,9.6875 -1.4375,0 0,-9.6875 z m 2.5,0 1.4375,0 0,9.6875 -1.4375,0 0,-9.6875 z m 2.5,0 1.4375,0 0,9.6875 -1.4375,0 0,-9.6875 z m 2.5,0 1,0 -1,4.84375 0,-4.84375 z m -12.59375,14.46875 c 1.15,0 2.0625,0.89 2.0625,2 0,1.108 -0.9125,2.03125 -2.0625,2.03125 -1.149,0 -2.09375,-0.92325 -2.09375,-2.03125 0,-1.109 0.94475,-2 2.09375,-2 z m 9.125,0 c 1.149,0 2.09375,0.89 2.09375,2 0,1.108 -0.94375,2.03125 -2.09375,2.03125 -1.15,0 -2.0625,-0.92325 -2.0625,-2.03125 0,-1.109 0.9125,-2 2.0625,-2 z"
         id="path11" /></g></g><g
     id="Ebene_1" /></svg>