<?xml version="1.0" encoding="UTF-8" standalone="no"?>
<!-- Created with Inkscape (http://www.inkscape.org/) -->

<svg
   xmlns:dc="http://purl.org/dc/elements/1.1/"
   xmlns:cc="http://creativecommons.org/ns#"
   xmlns:rdf="http://www.w3.org/1999/02/22-rdf-syntax-ns#"
   xmlns:svg="http://www.w3.org/2000/svg"
   xmlns="http://www.w3.org/2000/svg"
   version="1.1"
   width="70"
   height="70"
   id="svg2"
   xml:space="preserve"><metadata
     id="metadata30"><rdf:RDF><cc:Work
         rdf:about=""><dc:format>image/svg+xml</dc:format><dc:type
           rdf:resource="http://purl.org/dc/dcmitype/StillImage" /><dc:title></dc:title></cc:Work></rdf:RDF></metadata><defs
     id="defs28" /><g
     transform="translate(-0.03707627,-0.01853814)"
     id="iconarmedcar_x5F_ca"><g
       id="g5"><path
         d="m -0.05667375,-24.392215 -10.84375025,1 0,2.5 10.84375025,-1 11.03124975,1 0,-2.5 -11.03124975,-1 z m 0,3 -8.18749985,0.5625 0.125,10.9375005 6.6562498,0 0,-3.5000005 2.9999999,0 0,3.5000005 6.6562499,0 0.125,-10.9375005 -8.37499975,-0.5625 z m -8.71874985,0.6875 -3.1250004,0.3125 0,10.5000005 2.2499999,0 0.8750005,-10.8125005 z m 17.6249996,0 0.875,10.8125005 2.25,0 0,-10.5000005 -3.125,-0.3125 z m -9.31249975,8.1875 0,9.0000006 c -1.73900005,0.242 -3.06250005,1.72725 -3.06250005,3.53124989 0,1.97500011 1.5885,3.56250011 3.56250005,3.56250011 1.97399985,0 3.56249995,-1.5885 3.56249995,-3.56250011 0,-1.80399989 -1.3245001,-3.29024989 -3.06249995,-3.53124989 l 0,-9.0000006 -1,0 z m -16.53125025,3.7812506 0,2.84375 3.40625,0 0,-2.84375 -3.40625,0 z m 5.96875,0 0,8.74999989 0,0.34375004 0,17.74999947 22.125,0 0,-17.74999947 0,-0.34375004 0,-8.74999989 -2,1 -7.5624999,0 0,2.34375 c 2.3770001,0.657 4.1250001,2.82025 4.1250001,5.40624989 0,3.10700011 -2.519,5.62500011 -5.62499995,5.62500011 -3.10600005,0 -5.62500005,-2.518 -5.62500005,-5.62500011 0,-2.58499989 1.748,-4.74824989 4.125,-5.40624989 l 0,-2.34375 -7.4374998,0 -2.1250004,-1 z m 24.6875,0 0,2.84375 3.40625,0 0,-2.84375 -3.40625,0 z m -23.75,2.34375 0.9687504,0 0,6.12499993 -0.9687504,0 0,-6.12499993 z m 19.28125,0 0.96875,0 0,6.12499993 -0.96875,0 0,-6.12499993 z m -19.28125,7.75 0.9687504,0 0,6.125 -0.9687504,0 0,-6.125 z m 19.28125,0 0.96875,0 0,6.125 -0.96875,0 0,-6.125 z m -20.96875,18.1874994 0.8125,2.9375 22,0 0.8125,-2.9375 -23.625,0 z"
         id="rect7" /></g></g><g
     id="Ebene_1" /></svg>