<?xml version="1.0" encoding="UTF-8" standalone="no"?>
<!-- Created with Inkscape (http://www.inkscape.org/) -->

<svg
   xmlns:dc="http://purl.org/dc/elements/1.1/"
   xmlns:cc="http://creativecommons.org/ns#"
   xmlns:rdf="http://www.w3.org/1999/02/22-rdf-syntax-ns#"
   xmlns:svg="http://www.w3.org/2000/svg"
   xmlns="http://www.w3.org/2000/svg"
   version="1.1"
   width="70"
   height="70"
   id="svg2"
   xml:space="preserve"><metadata
     id="metadata12"><rdf:RDF><cc:Work
         rdf:about=""><dc:format>image/svg+xml</dc:format><dc:type
           rdf:resource="http://purl.org/dc/dcmitype/StillImage" /><dc:title></dc:title></cc:Work></rdf:RDF></metadata><defs
     id="defs10" /><g
     id="iconplane_x5F_ca"><path
       d="m 31.299,7.519 c 0,0 0.15,-0.107 0.15,-4.158 0,-4.05300003 -16.352,-7.602 -21.988,-16.035 0,-11.512 -4.498,-19.291 -8.87300003,-19.875 -0.186,-0.035 -0.373,-0.059 -0.563,-0.059 -0.008,0 -0.016,0.002 -0.02500000220339,0.002 C -0.00800003,-32.606 -0.01600003,-32.608 -0.02500003,-32.608 c -0.189,0 -0.375,0.023 -0.563,0.059 -4.37299987,0.584 -8.87099987,8.363 -8.87099987,19.875 C -15.098,-4.24 -31.449,-0.69200003 -31.449,3.361 c 0,4.051 0.152,4.158 0.152,4.158 L -8.1019999,1.206 c 1.186,5.346 3.494,18.352 3.494,18.352 L -11.276,24.226 v 3.322 l 0.051,-0.006 v 0.006 l 9.755,-0.869 v 5.93 h 2.938 v -5.93 l 9.756,0.869 v -0.006 l 0.051,0.006 V 24.226 L 4.609,19.558 c 0,0 2.307,-13.006 3.492,-18.352 L 31.299,7.519 z M 1.197,-29.173 c 1.822,0.801 3.26,2.414 3.73,5.73 l -3.73,-2 v -3.73 z m -2.394,0 v 3.73 l -3.7299999,2 c 0.472,-3.316 1.909,-4.929 3.7299999,-5.73 z m -5.8169999,14.027 c 0.441,-0.041 0.881,0.84 0.981,1.965 0.1,1.125 -0.175,2.07 -0.616,2.111 -0.443,0.039 -0.883,-0.842 -0.984,-1.967 -0.101,-1.125 0.176,-2.069 0.619,-2.109 z m 0.542,6.036 c 0.441,-0.039 0.881,0.84 0.981,1.965 0.102,1.127 -0.174,2.072 -0.615,2.111 -0.443,0.041 -0.884,-0.84 -0.984,-1.967 -0.101,-1.125 0.175,-2.068 0.618,-2.109 z m 0.572,6.365 c 0.441,-0.041 0.881,0.84 0.982,1.96499997 0.101,1.125 -0.174,2.07000003 -0.615,2.11100003 -0.443,0.039 -0.884,-0.84200003 -0.984,-1.96700003 -0.102,-1.12499997 0.173,-2.06999997 0.617,-2.10899997 z m 0.916,10.189 c -0.443,0.041 -0.883,-0.84 -0.984,-1.965 -0.101,-1.125 0.176,-2.07 0.619,-2.111 0.441,-0.039 0.881,0.842 0.981,1.967 0.1,1.125 -0.175,2.07 -0.616,2.109 z M 5.97,5.479 C 5.868,6.604 5.429,7.485 4.986,7.444 4.545,7.405 4.269,6.46 4.37,5.335 4.471,4.21 4.91,3.329 5.351,3.368 5.794,3.409 6.071,4.354 5.97,5.479 z M 6.519,-0.63600003 C 6.418,0.48899997 5.978,1.37 5.535,1.331 5.094,1.29 4.818,0.34499997 4.92,-0.78000003 5.022,-1.905 5.461,-2.786 5.902,-2.745 6.345,-2.706 6.62,-1.761 6.519,-0.63600003 z M 7.091,-7.001 C 6.99,-5.874 6.55,-4.993 6.107,-5.034 5.666,-5.073 5.39,-6.018 5.492,-7.145 5.593,-8.27 6.032,-9.149 6.473,-9.11 c 0.443,0.041 0.719,0.984 0.618,2.109 z m 0.543,-6.035 c -0.102,1.125 -0.541,2.006 -0.984,1.967 -0.441,-0.041 -0.717,-0.986 -0.616,-2.111 0.101,-1.125 0.54,-2.006 0.981,-1.965 0.443,0.039 0.72,0.984 0.619,2.109 z"
       id="path5" /></g><g
     id="Ebene_1" /></svg>