<?xml version="1.0" encoding="UTF-8" standalone="no"?>
<!-- Created with Inkscape (http://www.inkscape.org/) -->

<svg
   xmlns:dc="http://purl.org/dc/elements/1.1/"
   xmlns:cc="http://creativecommons.org/ns#"
   xmlns:rdf="http://www.w3.org/1999/02/22-rdf-syntax-ns#"
   xmlns:svg="http://www.w3.org/2000/svg"
   xmlns="http://www.w3.org/2000/svg"
   version="1.1"
   width="24"
   height="24"
   id="svg2"
   xml:space="preserve"><metadata
     id="metadata14"><rdf:RDF><cc:Work
         rdf:about=""><dc:format>image/svg+xml</dc:format><dc:type
           rdf:resource="http://purl.org/dc/dcmitype/StillImage" /><dc:title></dc:title></cc:Work></rdf:RDF></metadata><defs
     id="defs12" /><g
     transform="matrix(0.93203883,0,0,0.93203883,-32.665851,-34.780258)"
     id="iconmanexplosive_x5F_ca"><path
       d="m 35.014207,13.15353 -6.739258,9.488607 c 2.051,-0.946 4.331258,-1.47526 6.739258,-1.47526 2.407,0 4.65573,0.52926 6.70573,1.47526 l -6.70573,-9.488607 z m 0,11.265625 c -7.111,0 -12.875,5.764001 -12.875,12.875001 0,7.111 5.764,12.875 12.875,12.875 7.111001,0 12.875001,-5.764 12.875001,-12.875 0,-7.111 -5.764,-12.875001 -12.875001,-12.875001 z m 0,2.179362 9.589193,16.529623 -19.211914,0 9.622721,-16.529623 z"
       id="path5"
       style="fill:#ffffff" /></g><g
     id="Ebene_1" /></svg>