<?xml version="1.0" encoding="UTF-8" standalone="no"?>
<!-- Created with Inkscape (http://www.inkscape.org/) -->

<svg
   xmlns:dc="http://purl.org/dc/elements/1.1/"
   xmlns:cc="http://creativecommons.org/ns#"
   xmlns:rdf="http://www.w3.org/1999/02/22-rdf-syntax-ns#"
   xmlns:svg="http://www.w3.org/2000/svg"
   xmlns="http://www.w3.org/2000/svg"
   version="1.1"
   width="70"
   height="70"
   id="svg2"
   xml:space="preserve"><metadata
     id="metadata14"><rdf:RDF><cc:Work
         rdf:about=""><dc:format>image/svg+xml</dc:format><dc:type
           rdf:resource="http://purl.org/dc/dcmitype/StillImage" /><dc:title></dc:title></cc:Work></rdf:RDF></metadata><defs
     id="defs12" /><g
     transform="translate(0.20973506,-0.20973506)"
     id="g3009"><g
       id="g3002"><g
         id="g2996"><g
           transform="translate(-0.47190389,0.1573013)"
           id="g2991"><g
             transform="matrix(0.93203883,0,0,0.93203883,-32.309918,-32.04297)"
             id="iconmanofficer_x5F_ca"><path
               d="m 34.957935,10.274357 -6.739258,9.488607 c 2.051,-0.946 4.331258,-1.475261 6.739258,-1.475261 2.407,0 4.65573,0.529261 6.70573,1.475261 l -6.70573,-9.488607 z m 0,11.265625 c -7.111,0 -12.875,5.764 -12.875,12.875001 0,7.111 5.764,12.875 12.875,12.875 7.111,0 12.875001,-5.764 12.875001,-12.875 0,-7.111001 -5.764001,-12.875001 -12.875001,-12.875001 z m -5.968099,3.788737 5.968099,5.968099 5.968099,-5.968099 c 1.24,0.816 2.302165,1.878165 3.118165,3.118164 l -6.001628,5.9681 6.001628,5.968099 c -0.816,1.24 -1.878165,2.302164 -3.118165,3.118164 l -5.968099,-5.968099 -5.968099,5.968099 c -1.239,-0.816 -2.302164,-1.880164 -3.118164,-3.118164 l 5.968099,-5.968099 -5.968099,-5.9681 c 0.816,-1.238 1.879164,-2.302164 3.118164,-3.118164 z"
               id="path5"
               style="fill:#ffffff" /></g></g></g></g></g><g
     id="Ebene_1" /></svg>