<?xml version="1.0" encoding="UTF-8" standalone="no"?>
<!-- Created with Inkscape (http://www.inkscape.org/) -->

<svg
   xmlns:dc="http://purl.org/dc/elements/1.1/"
   xmlns:cc="http://creativecommons.org/ns#"
   xmlns:rdf="http://www.w3.org/1999/02/22-rdf-syntax-ns#"
   xmlns:svg="http://www.w3.org/2000/svg"
   xmlns="http://www.w3.org/2000/svg"
   version="1.1"
   width="70"
   height="70"
   id="svg2"
   xml:space="preserve"><metadata
     id="metadata22"><rdf:RDF><cc:Work
         rdf:about=""><dc:format>image/svg+xml</dc:format><dc:type
           rdf:resource="http://purl.org/dc/dcmitype/StillImage" /><dc:title></dc:title></cc:Work></rdf:RDF></metadata><defs
     id="defs20" /><g
     id="icontank_x5F_ca"><g
       id="g5"><path
         d="m -2.09375,-32.263361 0,7.15625 1,0 0,18.1249991 -5.8125,0 -5.59375,5.65625 0,10.3749998 2.7812503,7.1562511 19.4374997,0 2.78125,-7.1562511 0,-10.3749998 -5.59375,-5.65625 -5.8125,0 0,-18.1249991 1,0 0,-7.15625 -4.1875,0 z m -6.0625,5.15625 -8.6875,2 0,55.28125 6.65625,0 2.78125,2.0625 14.8125,0 2.78125,-2.0625 6.65625,0 0,-55.28125 -8.6875,-2 0,18.9374995 6,6.0937495 0,11.5937499 -3.21875,8.3125011 -2.78125,0 0,11.40625 -16.3125,0 0,-11.40625 -2.78125,0 -3.21875,-8.3125011 0,-11.5937499 6,-6.0937495 0,-18.9374995 z m 1.75,3 0,15.1562495 4.3125,0 0,-15.1562495 -4.3125,0 z m 8.5,0 0,15.1562495 4.5625,0 0,-15.1562495 -4.5625,0 z M 3.8125,3.7678881 c 2.659,0 4.8125,2.1535 4.8125,4.8124998 0,2.6580001 -2.1535,4.8125011 -4.8125,4.8125011 -2.659,0 -4.81249996,-2.154501 -4.81249996,-4.8125011 0,-2.6579998 2.15349996,-4.8124998 4.81249996,-4.8124998 z m -10.46875,14.3125009 0,9.65625 13.3125,0 0,-9.65625 -13.3125,0 z"
         id="rect7" /></g></g><g
     id="Ebene_1" /></svg>