<?xml version="1.0" encoding="UTF-8" standalone="no"?>
<!-- Created with Inkscape (http://www.inkscape.org/) -->

<svg
   xmlns:dc="http://purl.org/dc/elements/1.1/"
   xmlns:cc="http://creativecommons.org/ns#"
   xmlns:rdf="http://www.w3.org/1999/02/22-rdf-syntax-ns#"
   xmlns:svg="http://www.w3.org/2000/svg"
   xmlns="http://www.w3.org/2000/svg"
   version="1.1"
   width="70"
   height="70"
   id="svg2"
   xml:space="preserve"><metadata
     id="metadata26"><rdf:RDF><cc:Work
         rdf:about=""><dc:format>image/svg+xml</dc:format><dc:type
           rdf:resource="http://purl.org/dc/dcmitype/StillImage" /><dc:title></dc:title></cc:Work></rdf:RDF></metadata><defs
     id="defs24" /><g
     id="iconmanmedic_x5F_ca"><path
       d="m -0.01138641,-22.478681 -6.29126209,8.854369 c 1.9116116,-0.881709 4.0469126,-1.398058 6.29126209,-1.398058 2.24341751,0 4.35145631,0.516349 6.26213591,1.398058 l -6.26213591,-8.854369 z m 0,10.485437 c -6.62772809,0 -11.99999959,5.3732037 -11.99999959,11.99999981 0,6.62772819 5.3722715,12.00000019 11.99999959,12.00000019 6.62772821,0 12.00000041,-5.372272 12.00000041,-12.00000019 0,-6.62679611 -5.3722722,-11.99999981 -12.00000041,-11.99999981 z m 0,1.864078 c 1.00939812,0 1.99083491,0.1619412 2.91262141,0.4368927 l 0,4.6601941 4.0485437,-2.330097 c 1.4148349,1.3365437 2.4212038,3.0815534 2.8834953,5.038835 L 5.7847301,0.00675581 9.833274,2.3368529 C 9.3709825,4.2950665 8.3664777,6.0410082 6.9497787,7.3756878 l -4.0485437,-2.330097 0,4.6601941 c -0.9208544,0.2758838 -1.90229129,0.4368931 -2.91262141,0.4368931 -1.01033009,0 -1.99269899,-0.1619413 -2.91262129,-0.4368931 l 0,-4.6601941 -4.0485437,2.330097 C -8.3892505,6.0391441 -9.3928232,4.2950665 -9.8560462,2.3368529 L -5.8075029,0.00675581 -9.8560462,-2.3233412 c 0.463223,-1.9582137 1.4695919,-3.7032234 2.8834948,-5.038835 l 4.0485437,2.330097 0,-4.6601941 c 0.9199223,-0.2749515 1.9022912,-0.4368927 2.91262129,-0.4368927 z"
       id="path5"
       style="fill:#ffffff" /></g><g
     id="Ebene_1" /></svg>