<?xml version="1.0" encoding="UTF-8" standalone="no"?>
<!-- Created with Inkscape (http://www.inkscape.org/) -->

<svg
   xmlns:dc="http://purl.org/dc/elements/1.1/"
   xmlns:cc="http://creativecommons.org/ns#"
   xmlns:rdf="http://www.w3.org/1999/02/22-rdf-syntax-ns#"
   xmlns:svg="http://www.w3.org/2000/svg"
   xmlns="http://www.w3.org/2000/svg"
   version="1.1"
   width="70"
   height="70"
   id="svg2"
   xml:space="preserve"><metadata
     id="metadata56"><rdf:RDF><cc:Work
         rdf:about=""><dc:format>image/svg+xml</dc:format><dc:type
           rdf:resource="http://purl.org/dc/dcmitype/StillImage" /><dc:title></dc:title></cc:Work></rdf:RDF></metadata><defs
     id="defs54" /><g
     id="icontruck_x5F_ca"><g
       id="g33"><path
         d="m -0.09374998,-32.1875 -10.84375102,1 0,2.5 10.84375102,-1 11.03124798,1 0,-2.5 -11.03124798,-1 z m 0,3 -8.18749992,0.53125 0.125,10.96875 16.3124991,0 0.125,-10.9375 -8.37499918,-0.5625 z m -8.71874992,0.65625 -3.1250011,0.34375 0,10.5 2.2500011,0 0.875,-10.84375 z m 17.6249991,0 0.875,10.84375 2.2499988,0 0,-10.5 -3.1249988,-0.34375 z m -25.8437512,12 0,2.84375 3.406251,0 0,-2.84375 -3.406251,0 z m 5.968751,0 0,9.0937499 22.124999,0 0,-9.0937499 -1.9999988,1 -17.9999991,0 -2.1250011,-1 z m 24.687499,0 0,2.84375 3.40625,0 0,-2.84375 -3.40625,0 z m -26.124999,10.7187499 c -0.55,0 -1,0.449 -1,1 l 0,36.0312501 c 0,0.551 0.45,0.96875 1,0.96875 l 24.999999,0 c 0.551,0 1,-0.41775 1,-0.96875 l 0,-36.0312501 c 0,-0.551 -0.449,-1 -1,-1 l -24.999999,0 z m 1,8.125 22.999999,0 0,1.75 -22.999999,0 0,-1.75 z m 0,10.0000001 22.999999,0 0,1.75 -22.999999,0 0,-1.75 z m 0,10 22.999999,0 0,1.75 -22.999999,0 0,-1.75 z"
         id="path35" /></g></g><g
     id="Ebene_1" /></svg>