<?xml version="1.0" encoding="UTF-8" standalone="no"?>
<!-- Created with Inkscape (http://www.inkscape.org/) -->

<svg
   xmlns:dc="http://purl.org/dc/elements/1.1/"
   xmlns:cc="http://creativecommons.org/ns#"
   xmlns:rdf="http://www.w3.org/1999/02/22-rdf-syntax-ns#"
   xmlns:svg="http://www.w3.org/2000/svg"
   xmlns="http://www.w3.org/2000/svg"
   version="1.1"
   width="70"
   height="70"
   id="svg2"
   xml:space="preserve"><metadata
     id="metadata18"><rdf:RDF><cc:Work
         rdf:about=""><dc:format>image/svg+xml</dc:format><dc:type
           rdf:resource="http://purl.org/dc/dcmitype/StillImage" /><dc:title></dc:title></cc:Work></rdf:RDF></metadata><defs
     id="defs16" /><g
     transform="translate(0.54078657,-0.71980661)"
     id="iconship_x5F_ca"><g
       id="g5"><path
         d="m -0.26906786,-33.258474 c -2.31900004,0 -13.75000014,13.07125 -13.75000014,42.7812493 0,3.4790007 4.6562501,25.2187507 4.6562501,25.2187507 l 16.6874997,0 c 0,0 5.6562502,-19.76975 5.6562502,-25.2187507 0.001,-29.9509993 -10.9309999,-42.7812493 -13.24999986,-42.7812493 z m -8.28125004,32.6562494 7.28125,0 0,4.25 -5.90625,0 -0.90625,7.7812496 -1.46875,0 1,-12.0312496 z m 8.78125004,0 7.28124966,0 1,12.0312496 -1.4687497,0 -0.90625,-7.7812496 -5.90624996,0 0,-4.25 z m -9.78125004,13.9687506 1,0 0,4.84375 -1,-4.84375 z m 2.09375,0 1.40625,0 0,9.6875 -1.40625,0 0,-9.6875 z m 2.46875,0 1.4375,0 0,9.6875 -1.4375,0 0,-9.6875 z m 2.5,0 1.4375,0 0,9.6875 -1.4375,0 0,-9.6875 z m 2.50000004,0 1.43749996,0 0,9.6875 -1.43749996,0 0,-9.6875 z m 2.49999996,0 1.4375,0 0,9.6875 -1.4375,0 0,-9.6875 z m 2.5,0 1.40625,0 0,9.6875 -1.40625,0 0,-9.6875 z m 2.4999997,0 1,0 -1,4.84375 0,-4.84375 z m -12.5937497,14.46875 c 1.15,0 2.0625,0.89 2.0625,2 0,1.108 -0.9115,2.03125 -2.0625,2.03125 -1.149,0 -2.09375,-0.92325 -2.09375,-2.03125 0,-1.109 0.94475,-2 2.09375,-2 z m 9.125,0 c 1.148,0 2.09375,0.89 2.09375,2 0,1.108 -0.94475,2.03125 -2.09375,2.03125 -1.15,0 -2.0625,-0.92325 -2.0625,-2.03125 0,-1.109 0.9125,-2 2.0625,-2 z m -9.125,0.84375 c -0.673787,0 -1.25,0.506763 -1.25,1.15625 0,0.649487 0.576213,1.1875 1.25,1.1875 0.673787,0 1.21875,-0.538013 1.21875,-1.1875 0,-0.649487 -0.544963,-1.15625 -1.21875,-1.15625 z m 9.125,0 c -0.67434,0 -1.21875,0.506763 -1.21875,1.15625 0,0.649487 0.54441,1.1875 1.21875,1.1875 0.67434,0 1.25,-0.538013 1.25,-1.1875 0,-0.649487 -0.57566,-1.15625 -1.25,-1.15625 z"
         id="ellipse7" /></g></g><g
     id="Ebene_1" /></svg>