<?xml version="1.0" encoding="UTF-8" standalone="no"?>
<!-- Created with Inkscape (http://www.inkscape.org/) -->

<svg
   xmlns:dc="http://purl.org/dc/elements/1.1/"
   xmlns:cc="http://creativecommons.org/ns#"
   xmlns:rdf="http://www.w3.org/1999/02/22-rdf-syntax-ns#"
   xmlns:svg="http://www.w3.org/2000/svg"
   xmlns="http://www.w3.org/2000/svg"
   version="1.1"
   width="70"
   height="70"
   id="svg2"
   xml:space="preserve"><metadata
     id="metadata14"><rdf:RDF><cc:Work
         rdf:about=""><dc:format>image/svg+xml</dc:format><dc:type
           rdf:resource="http://purl.org/dc/dcmitype/StillImage" /><dc:title></dc:title></cc:Work></rdf:RDF></metadata><defs
     id="defs12" /><g
     transform="matrix(0.93203883,0,0,0.93203883,-32.013309,-30.559919)"
     id="iconmanvirtual_x5F_ca"><path
       d="m 34.353008,8.6649727 -6.70573,9.4886063 c 2.051,-0.946001 4.29773,-1.475261 6.70573,-1.475261 2.407,0 4.689258,0.52926 6.739258,1.475261 L 34.353008,8.6649727 z m 0,11.2656243 c -7.11,0 -12.875001,5.765 -12.875001,12.875 0,7.111 5.765001,12.875001 12.875001,12.875001 7.111,0 12.875,-5.764001 12.875,-12.875001 0,-7.11 -5.764,-12.875 -12.875,-12.875 z m 0,2.011719 c 6.007,0 10.89681,4.857281 10.89681,10.863281 0,6.008 -4.88981,10.863282 -10.89681,10.863282 -6.007,0 -10.863282,-4.855282 -10.863282,-10.863282 0,-6.006 4.856282,-10.863281 10.863282,-10.863281 z"
       id="path5"
       style="fill:#ffffff" /></g><g
     id="Ebene_1" /></svg>