<?xml version="1.0" encoding="UTF-8" standalone="no"?>
<!-- Created with Inkscape (http://www.inkscape.org/) -->

<svg
   xmlns:dc="http://purl.org/dc/elements/1.1/"
   xmlns:cc="http://creativecommons.org/ns#"
   xmlns:rdf="http://www.w3.org/1999/02/22-rdf-syntax-ns#"
   xmlns:svg="http://www.w3.org/2000/svg"
   xmlns="http://www.w3.org/2000/svg"
   version="1.1"
   width="70"
   height="70"
   id="svg2"
   xml:space="preserve"><metadata
     id="metadata20"><rdf:RDF><cc:Work
         rdf:about=""><dc:format>image/svg+xml</dc:format><dc:type
           rdf:resource="http://purl.org/dc/dcmitype/StillImage" /><dc:title></dc:title></cc:Work></rdf:RDF></metadata><defs
     id="defs18" /><g
     transform="translate(-34.969672,-29.661814)"
     id="iconmotorcycle_x5F_ca"><g
       id="g5"><path
         d="m 33.401616,14.567135 c -0.349,0 -0.625,0.275 -0.625,0.625 l 0,5.875 c 0.659,-0.353 1.41975,-0.5625 2.21875,-0.5625 0.799,0 1.55875,0.2115 2.21875,0.5625 l 0,-5.875 c 0,-0.35 -0.277,-0.625 -0.625,-0.625 l -3.1875,0 z m -2,4.0625 c -0.349,0 -0.625,0.30725 -0.625,0.65625 l 0,4.375 c -0.94,0.125 -1.75475,0.28575 -2.46875,0.46875 l 0,-0.1875 c -3.1,0.777 -4.23725,1.90375 -4.40625,2.09375 -0.348,0.391 -0.3275,0.99475 0.0625,1.34375 0.39,0.348 0.99675,0.3275 1.34375,-0.0625 0.012,-0.012 0.79,-0.8075 3,-1.4375 l 0,-0.1875 c 0.685,-0.193 1.50475,-0.363 2.46875,-0.5 l 0,3.9375 c -0.342,1.083 -0.53125,2.33125 -0.53125,3.65625 0,2.356 0.4015,4.4325 1.4375,5.8125 l -4.09375,0 c -0.348,0 -0.625,0.30725 -0.625,0.65625 l 0,0.1875 c 0,0.349 0.277,0.65625 0.625,0.65625 l 3.1875,0 0,11.875 c 0,0.348 0.276,0.625 0.625,0.625 l 0.21875,0 c 0.349,0 0.625,-0.277 0.625,-0.625 l 0,-11.875 5.5,0 0,11.875 c 0,0.348 0.276,0.625 0.625,0.625 l 0.21875,0 c 0.349,0 0.625,-0.277 0.625,-0.625 l 0,-11.875 3.1875,0 c 0.349,0 0.625,-0.30725 0.625,-0.65625 l 0,-0.1875 c 0,-0.349 -0.276,-0.65625 -0.625,-0.65625 l -4.09375,0 c 1.037,-1.38 1.4375,-3.4575 1.4375,-5.8125 0,-1.326 -0.19025,-2.57425 -0.53125,-3.65625 l 0,-3.9375 c 0.965,0.138 1.78375,0.307 2.46875,0.5 l 0,0.21875 c 2.205,0.631 2.994,1.40125 3,1.40625 0.187,0.21 0.45875,0.3125 0.71875,0.3125 0.225,0 0.444,-0.09 0.625,-0.25 0.391,-0.348 0.4105,-0.95275 0.0625,-1.34375 -0.17,-0.19 -1.30725,-1.31675 -4.40625,-2.09375 l 0,0.1875 c -0.714,-0.184 -1.52775,-0.34275 -2.46875,-0.46875 l 0,-4.375 c 0,-0.349 -0.276,-0.65625 -0.625,-0.65625 l -0.21875,0 c -0.349,0 -0.625,0.30725 -0.625,0.65625 l 0,4.21875 c -0.217,-0.017 -0.4595,-0.01725 -0.6875,-0.03125 -0.225,-0.935 -1.0595,-1.625 -2.0625,-1.625 -1.005,0 -1.8375,0.69 -2.0625,1.625 -0.228,0.014 -0.4705,0.01425 -0.6875,0.03125 l 0,-4.21875 c 0,-0.349 -0.276,-0.65625 -0.625,-0.65625 l -0.21875,0 z m 1.71875,6.34375 c 0.116,0.218 0.2565,0.3975 0.4375,0.5625 -0.488,0.209 -0.9245,0.5305 -1.3125,0.9375 l 0,-1.46875 c 0.277,-0.024 0.578,-0.01525 0.875,-0.03125 z m 3.75,0 c 0.298,0.017 0.598,0.0083 0.875,0.03125 l 0,1.46875 c -0.389,-0.407 -0.8255,-0.7285 -1.3125,-0.9375 0.182,-0.165 0.3215,-0.3435 0.4375,-0.5625 z m -1.90625,3.1875 c 0.832,0 1.5,0.668 1.5,1.5 0,0.832 -0.669,1.5 -1.5,1.5 -0.832,0 -1.5,-0.668 -1.5,-1.5 0,-0.832 0.668,-1.5 1.5,-1.5 z m -1.90625,12.6875 c -0.097,0 -0.19625,0.0052 -0.28125,0.03125 l 0,7.53125 c 0,0.349 0.276,0.65625 0.625,0.65625 l 3.1875,0 c 0.348,0 0.625,-0.30725 0.625,-0.65625 l 0,-7.53125 c -0.086,-0.026 -0.18525,-0.03125 -0.28125,-0.03125 l -3.875,0 z m -0.28125,8.96875 0,5 c 0,0.349 0.276,0.625 0.625,0.625 l 3.1875,0 c 0.348,0 0.625,-0.276 0.625,-0.625 l 0,-5 -4.4375,0 z"
         id="path7" /></g></g><g
     id="Ebene_1" /></svg>