<?xml version="1.0" encoding="UTF-8" standalone="no"?>
<!-- Created with Inkscape (http://www.inkscape.org/) -->

<svg
   xmlns:dc="http://purl.org/dc/elements/1.1/"
   xmlns:cc="http://creativecommons.org/ns#"
   xmlns:rdf="http://www.w3.org/1999/02/22-rdf-syntax-ns#"
   xmlns:svg="http://www.w3.org/2000/svg"
   xmlns="http://www.w3.org/2000/svg"
   version="1.1"
   width="70"
   height="70"
   id="svg2"
   xml:space="preserve"><metadata
     id="metadata22"><rdf:RDF><cc:Work
         rdf:about=""><dc:format>image/svg+xml</dc:format><dc:type
           rdf:resource="http://purl.org/dc/dcmitype/StillImage" /><dc:title></dc:title></cc:Work></rdf:RDF></metadata><defs
     id="defs20" /><g
     id="iconmanleader_x5F_ca"><path
       d="m 0,-22.514302 -6.25,8.84375 c 1.911612,-0.881709 4.00565,-1.375 6.25,-1.375 2.243417,0 4.37057,0.493291 6.28125,1.375 L 0,-22.514302 z m 0,10.5 c -6.627728,0 -12,5.3732052 -12,12.00000115 0,6.62772785 5.372272,11.99999885 12,11.99999885 6.627728,0 12,-5.372271 12,-11.99999885 C 12,-6.6410968 6.627728,-12.014302 0,-12.014302 z m 4.9375,3.1250012 c 1.659961,0.921786 3.016646,2.308789 3.9375,3.96875 L -4.90625,8.8606992 C -6.566211,7.9398443 -7.921964,6.550978 -8.84375,4.8919492 L 4.9375,-8.8893008 z"
       id="path5"
       style="fill:#ffffff" /></g><g
     id="Ebene_1" /></svg>