<?xml version="1.0" encoding="UTF-8" standalone="no"?>
<!-- Created with Inkscape (http://www.inkscape.org/) -->

<svg
   xmlns:dc="http://purl.org/dc/elements/1.1/"
   xmlns:cc="http://creativecommons.org/ns#"
   xmlns:rdf="http://www.w3.org/1999/02/22-rdf-syntax-ns#"
   xmlns:svg="http://www.w3.org/2000/svg"
   xmlns="http://www.w3.org/2000/svg"
   version="1.1"
   width="70"
   height="70"
   id="svg2"
   xml:space="preserve"><metadata
     id="metadata12"><rdf:RDF><cc:Work
         rdf:about=""><dc:format>image/svg+xml</dc:format><dc:type
           rdf:resource="http://purl.org/dc/dcmitype/StillImage" /><dc:title></dc:title></cc:Work></rdf:RDF></metadata><defs
     id="defs10" /><path
     d="m 0,-24.158957 -6.75,9.5 c 2.051,-0.946 4.342,-1.5 6.75,-1.5 2.407,0 4.66875,0.554 6.71875,1.5 L 0,-24.158957 z m 0,11.25 c -7.11,0 -12.875,5.7649999 -12.875,12.87499984 C -12.875,7.077043 -7.11,12.841043 0,12.841043 c 7.111,0 12.875,-5.764 12.875,-12.87500016 C 12.875,-7.1439571 7.111,-12.908957 0,-12.908957 z m 0,2 c 6.007,0 10.875,4.8689999 10.875,10.87499984 C 10.875,5.974043 6.007,10.841043 0,10.841043 c -6.007,0 -10.875,-4.867 -10.875,-10.87500016 C -10.875,-6.0399571 -6.007,-10.908957 0,-10.908957 z"
     id="path4" /></svg>