<?xml version="1.0" encoding="UTF-8" standalone="no"?>
<!-- Created with Inkscape (http://www.inkscape.org/) -->

<svg
   xmlns:dc="http://purl.org/dc/elements/1.1/"
   xmlns:cc="http://creativecommons.org/ns#"
   xmlns:rdf="http://www.w3.org/1999/02/22-rdf-syntax-ns#"
   xmlns:svg="http://www.w3.org/2000/svg"
   xmlns="http://www.w3.org/2000/svg"
   version="1.1"
   width="70"
   height="70"
   id="svg2"
   xml:space="preserve"><metadata
     id="metadata13"><rdf:RDF><cc:Work
         rdf:about=""><dc:format>image/svg+xml</dc:format><dc:type
           rdf:resource="http://purl.org/dc/dcmitype/StillImage" /><dc:title></dc:title></cc:Work></rdf:RDF></metadata><defs
     id="defs11" /><g
     transform="translate(-35,-34.991776)"
     id="iconmanofficer_x5F_ca"><path
       d="m 0,-24.125 -6.75,9.5 c 2.051,-0.946 4.342,-1.5 6.75,-1.5 2.407,0 4.66875,0.554 6.71875,1.5 L 0,-24.125 z m 0,11.25 c -7.111,0 -12.875,5.764 -12.875,12.875 0,7.111 5.764,12.875 12.875,12.875 C 7.111,12.875 12.875,7.111 12.875,0 12.875,-7.111 7.111,-12.875 0,-12.875 z M -5.96875,-9.0625 0,-3.09375 5.96875,-9.0625 c 1.24,0.816 2.309,1.85375 3.125,3.09375 L 3.125,0 9.09375,5.96875 c -0.816,1.24 -1.885,2.309 -3.125,3.125 L 0,3.125 -5.96875,9.09375 c -1.239,-0.816 -2.309,-1.887 -3.125,-3.125 L -3.125,0 -9.09375,-5.96875 c 0.816,-1.238 1.886,-2.27775 3.125,-3.09375 z"
       transform="translate(35,34.991776)"
       id="path5" /></g></svg>