<?xml version="1.0" encoding="UTF-8" standalone="no"?>
<!-- Created with Inkscape (http://www.inkscape.org/) -->

<svg
   xmlns:dc="http://purl.org/dc/elements/1.1/"
   xmlns:cc="http://creativecommons.org/ns#"
   xmlns:rdf="http://www.w3.org/1999/02/22-rdf-syntax-ns#"
   xmlns:svg="http://www.w3.org/2000/svg"
   xmlns="http://www.w3.org/2000/svg"
   version="1.1"
   width="70"
   height="70"
   id="svg2"
   xml:space="preserve"><metadata
     id="metadata56"><rdf:RDF><cc:Work
         rdf:about=""><dc:format>image/svg+xml</dc:format><dc:type
           rdf:resource="http://purl.org/dc/dcmitype/StillImage" /><dc:title></dc:title></cc:Work></rdf:RDF></metadata><defs
     id="defs54" /><g
     id="icontruck_x5F_ca"><g
       id="text3025"
       style="font-size:40px;font-style:normal;font-weight:normal;line-height:125%;letter-spacing:0px;word-spacing:0px;fill:#000000;fill-opacity:1;stroke:none;font-family:Sans"><path
         d="m -2.7003441,10.063824 4.7578125,0 0,5.953125 -4.7578125,0 0,-5.953125 m 4.6171875,-3.4453128 -4.4765625,0 0,-3.609375 c -9.3e-6,-1.5781104 0.2187405,-2.87498412 0.65625,-3.890625 0.4374896,-1.0156071 1.35936369,-2.1952934 2.76562501,-3.5390625 L 2.9715309,-6.5064888 c 0.8906093,-0.8281016 1.5312336,-1.6093509 1.921875,-2.34375 0.4062329,-0.7343494 0.6093576,-1.4843482 0.609375,-2.2500002 -1.74e-5,-1.390596 -0.5156418,-2.515595 -1.546875,-3.375 -1.0156398,-0.859343 -2.3672009,-1.289031 -4.05468749,-1.289062 -1.23438551,3.1e-5 -2.55469671,0.273469 -3.96093751,0.820312 -1.3906314,0.546906 -2.8437549,1.34378 -4.359375,2.390625 l 0,-4.40625 c 1.4687451,-0.890591 2.9531186,-1.554653 4.453125,-1.992187 1.5156156,-0.437465 3.07811404,-0.656215 4.68750001,-0.65625 2.87498459,3.5e-5 5.17966969,0.757847 6.91406249,2.273437 1.7499788,1.515657 2.6249776,3.515655 2.6249996,6 -2.2e-5,1.187526 -0.2812714,2.3203377 -0.8437496,3.3984377 -0.5625207,1.0625229 -1.5468947,2.2656467 -2.953125,3.609375 l -2.0625,2.015625 C 3.6668279,-1.5767837 3.1433909,-0.99865928 2.8309059,-0.5768013 2.5340165,-0.17053511 2.3230792,0.22790199 2.1980934,0.6185112 2.1043294,0.94665127 2.034017,1.3450884 1.9871559,1.8138237 1.9402671,2.2825874 1.9168296,2.9232118 1.9168434,3.7356987 l 0,2.8828125"
         id="path3049"
         style="font-size:48px" /></g></g><g
     id="Ebene_1" /></svg>