<?xml version="1.0" encoding="UTF-8" standalone="no"?>
<!-- Created with Inkscape (http://www.inkscape.org/) -->

<svg
   xmlns:dc="http://purl.org/dc/elements/1.1/"
   xmlns:cc="http://creativecommons.org/ns#"
   xmlns:rdf="http://www.w3.org/1999/02/22-rdf-syntax-ns#"
   xmlns:svg="http://www.w3.org/2000/svg"
   xmlns="http://www.w3.org/2000/svg"
   version="1.1"
   width="70"
   height="70"
   id="svg2"
   xml:space="preserve"><metadata
     id="metadata21"><rdf:RDF><cc:Work
         rdf:about=""><dc:format>image/svg+xml</dc:format><dc:type
           rdf:resource="http://purl.org/dc/dcmitype/StillImage" /><dc:title></dc:title></cc:Work></rdf:RDF></metadata><defs
     id="defs19" /><g
     transform="translate(-35.29661,-35)"
     id="iconmanleader_x5F_ca"><g
       transform="translate(0.26516504,0.02209709)"
       id="g3010"><path
         d="m -0.03125,-24.09375 -6.75,9.46875 c 2.051,-0.946 4.342,-1.46875 6.75,-1.46875 2.407,0 4.66875,0.52275 6.71875,1.46875 l -6.71875,-9.46875 z m 0,11.25 c -7.111,0 -12.875,5.765 -12.875,12.875 0,7.111 5.764,12.875 12.875,12.875 7.111,0 12.875,-5.764 12.875,-12.875 0,-7.11 -5.764,-12.875 -12.875,-12.875 z M 5.25,-9.5 c 1.781,0.989 3.23075,2.469 4.21875,4.25 L -5.3125,9.53125 c -1.781,-0.988 -3.22975,-2.47 -4.21875,-4.25 L 5.25,-9.5 z"
         transform="translate(35.031445,34.977903)"
         id="path5" /></g></g></svg>