<?xml version="1.0" encoding="UTF-8" standalone="no"?>
<!-- Created with Inkscape (http://www.inkscape.org/) -->

<svg
   xmlns:dc="http://purl.org/dc/elements/1.1/"
   xmlns:cc="http://creativecommons.org/ns#"
   xmlns:rdf="http://www.w3.org/1999/02/22-rdf-syntax-ns#"
   xmlns:svg="http://www.w3.org/2000/svg"
   xmlns="http://www.w3.org/2000/svg"
   version="1.1"
   width="70"
   height="70"
   viewBox="0"
   id="svg4042"
   xml:space="preserve"><metadata
     id="metadata4070"><rdf:RDF><cc:Work
         rdf:about=""><dc:format>image/svg+xml</dc:format><dc:type
           rdf:resource="http://purl.org/dc/dcmitype/StillImage" /><dc:title></dc:title></cc:Work></rdf:RDF></metadata><defs
     id="defs4068" /><g
     id="iconmanengineer_x5F_ca"><path
       d="m 0.01483051,-22.449268 -6.29126201,8.825243 c 1.9116116,-0.881709 4.0469127,-1.368932 6.29126201,-1.368932 2.24341769,0 4.35145639,0.487223 6.26213599,1.368932 l -6.26213599,-8.825243 z m 0,10.485437 c -6.62772801,0 -12.00000051,5.3722729 -12.00000051,12.00000093 0,6.62772827 5.3722725,11.99999907 12.00000051,11.99999907 C 6.6425588,12.036169 12.01483,6.6638982 12.01483,0.03616993 12.01483,-6.5915581 6.6425588,-11.963831 0.01483051,-11.963831 z m -8.41747561,5.5339816 c 3.1260582,0 5.7511456,2.2035729 6.3495145,5.1553398 l 4.1359224,0 c 0.5983689,-2.9517669 3.2234566,-5.1553398 6.3495145,-5.1553398 l 0,3 c -1.8985627,0 -3.4660194,1.5665243 -3.4660194,3.46601933 0,1.89949527 1.5674567,3.43689337 3.4660194,3.43689337 l 0,3.0291262 c -2.9638831,0 -5.471534,-2.0232233 -6.2330097,-4.7475728 l -4.368932,0 c -0.7605437,2.7243495 -3.2691262,4.7475728 -6.2330097,4.7475728 l 0,-3.0291262 c 1.8994951,0 3.4660194,-1.5373981 3.4660194,-3.43689337 0,-1.89949503 -1.5665243,-3.46601933 -3.4660194,-3.46601933 l 0,-
3 z"
       id="path4045"
       style="fill:#ffffff" /></g><g
     id="Ebene_1" /></svg>
