<?xml version="1.0" encoding="UTF-8" standalone="no"?>
<!-- Created with Inkscape (http://www.inkscape.org/) -->

<svg
   xmlns:dc="http://purl.org/dc/elements/1.1/"
   xmlns:cc="http://creativecommons.org/ns#"
   xmlns:rdf="http://www.w3.org/1999/02/22-rdf-syntax-ns#"
   xmlns:svg="http://www.w3.org/2000/svg"
   xmlns="http://www.w3.org/2000/svg"
   version="1.1"
   width="70"
   height="70"
   id="svg2"
   xml:space="preserve"><metadata
     id="metadata22"><rdf:RDF><cc:Work
         rdf:about=""><dc:format>image/svg+xml</dc:format><dc:type
           rdf:resource="http://purl.org/dc/dcmitype/StillImage" /><dc:title></dc:title></cc:Work></rdf:RDF></metadata><defs
     id="defs20" /><g
     id="iconheliarmed_x5F_ca"><g
       id="g5"><path
         d="m -0.41455865,-30.130519 c -4.22367705,0.561342 -7.62868805,9.727906 -7.84375005,21.1562504 l -11.4062503,-11.4062504 -7,-7 -1.59375,1.59375 15.375,15.34375 3.6562503,1.9062504 0.96875,1 c 0.002,0.368 0.02325,0.72975 0.03125,1.09375 l -5.4062503,2.84375 0,-3.59375 -3.25,0 0,5.34375 -2.25,1.18749995 0,-3.46874995 -3.25,0 0,14.0937495 3.25,0 0,-4.3749992 2.25,-0.375 0,1.71875 3.25,0 0,-2.21875 6.5312503,-1.0625 c 0.183,0.822 0.407,1.50475 0.625,2.09375 l -13.9062503,13.9062493 -7,6.96875 1.59375,1.59375 15.34375,-15.34375 1.9375003,-3.6562493 1.84375,-1.84375 0.59375,-0.625 c 1.165,2.271 2.72075,2.455 4.46875,3.3749993 l 0,17.90625 -6.65625,4.65625 0,3.3125 8.25000005,-1 8.25000005,1 0,-3.3125 -6.6562501,-4.65625 0,-17.90625 c 1.748,-0.9209993 3.3047501,-1.1039993 4.4687501,-3.3749993 l 13.5937496,13.6249993 7,6.96875 1.59375,-1.59375 -15.375,-15.34375 -3.6562496,-1.9062493 -1.84375,-1.84375 -0.90625,-0.90625 c 0.218,-0.589 0.443,-1.27175 0.625,-2.09375 l 6.5312496,1.0625 0,2.21875 3.25,0 0,-1.6875 2.25,0.34375 0,4.4062492 3.25,0 0,-14.1249995 -3.25,0 0,2.5 -2.25,-1 0,-4.5625 -3.25,0 0,3.125 -5.4062496,-2.375 c 0.008,-0.363 0.02925,-0.72575 0.03125,-1.09375 l 12.1249996,-12.1250004 7,-7 -1.59375,-1.59375 -15.34375,15.34375 -1.9062496,3.6562504 -0.28125,0.28125 c -0.221,-11.7970004 -3.836,-21.1562504 -8.25000005,-21.1562504 -0.137906,0 -0.270002,-0.01811 -0.40625,0 z m -0.78125005,3.40625 0,5.75 -3.75,0 c 0.476,-3.348 1.905,-4.957 3.75,-5.75 z m 2.375,0 c 1.846,0.791 3.2740001,2.402 3.7500001,5.75 l -3.7500001,0 0,-5.75 z m -16.4375003,15.5 -1.625,2.0937504 0,0.96875 3.25,0 0,-0.96875 -1.625,-2.0937504 z m 30.5,0 -1.625,2.0937504 0,0.96875 3.25,0 0,-0.96875 -1.625,-2.0937504 z m -36,3.0625004 -1.625,2.09375 0,0.96875 3.25,0 0,-0.96875 -1.625,-2.09375 z m 41.5,0 -1.625,2.09375 0,0.96875 3.25,0 0,-0.96875 -1.625,-2.09375 z m -20.74999965,5.125 c 0.65199999,0 1.25599995,0.2105 1.74999995,0.5625 l -0.84374996,0.84375 c -0.271,-0.152 -0.57424999,-0.25 -0.90624999,-0.25 -0.332,0 -0.63625,0.099 -0.90625,0.25 l -0.84375005,-0.84375 c 0.494,-0.352 1.09800005,-0.5625 1.75000005,-0.5625 z m -2.46875005,1.28125 0.84375,0.84374995 c -0.152,0.271 -0.25,0.57425 -0.25,0.90625 0,0.332 0.098,0.63625 0.25,0.90625027 l -0.84375,0.84375008 c -0.351,-0.495 -0.5625,-1.09800035 -0.5625,-1.75000035 0,-0.652 0.2115,-1.25599995 0.5625,-1.74999995 z m 4.9375,0 c 0.352,0.494 0.5625,1.09699995 0.5625,1.74999995 0,0.652 -0.2105,1.25600035 -0.5625,1.75000035 l -0.84375,-0.84375008 c 0.151,-0.27000027 0.25,-0.57425027 0.25,-0.90625027 0,-0.332 -0.098,-0.63625 -0.25,-0.90625 l 0.84375,-0.84374995 z m -3.37499995,3.3750003 c 0.271,0.152 0.57425,0.25 0.90625,0.25 0.333,0 0.63624999,-0.097 0.90624999,-0.25 l 0.84374996,0.8125 c -0.494,0.352 -1.09699996,0.5625 -1.74999995,0.5625 -0.652,0 -1.25600005,-0.2115 -1.75000005,-0.5625 l 0.84375005,-0.8125 z"
         id="path7" /></g></g><g
     id="Ebene_1" /></svg>