<?xml version="1.0" encoding="UTF-8" standalone="no"?>
<!-- Created with Inkscape (http://www.inkscape.org/) -->

<svg
   xmlns:dc="http://purl.org/dc/elements/1.1/"
   xmlns:cc="http://creativecommons.org/ns#"
   xmlns:rdf="http://www.w3.org/1999/02/22-rdf-syntax-ns#"
   xmlns:svg="http://www.w3.org/2000/svg"
   xmlns="http://www.w3.org/2000/svg"
   version="1.1"
   width="70"
   height="70"
   id="svg2"
   xml:space="preserve"><metadata
     id="metadata24"><rdf:RDF><cc:Work
         rdf:about=""><dc:format>image/svg+xml</dc:format><dc:type
           rdf:resource="http://purl.org/dc/dcmitype/StillImage" /><dc:title></dc:title></cc:Work></rdf:RDF></metadata><defs
     id="defs22" /><g
     id="iconplanearmed_x5F_ca"><g
       id="g5"><path
         d="m 0.03567452,-33.370576 c -0.003,0 -1.55549992,2.02975 -3.56249992,5.59375 1.134,-0.25 2.30325,-0.40625 3.53124992,-0.40625 1.29300008,0 2.56400008,0.1615 3.75000008,0.4375 -2.002,-3.592 -3.63075008,-5.625 -3.71875008,-5.625 z m 0.0625,6.71875 c -1.93549992,-0.01025 -3.87324992,0.14775 -4.53124992,0.46875 -2.449,5.146 -5,15.60175 -5,24.3437509 l -1.9062506,3.0625 -3,0 0,4.75 -2.249999,3.5625 0,-1.25 -3.25,0 0,6.4062491 -1.5625,2.5 0.125,9.15625 10.156249,-11.03125 0.03125,0 0,-0.03125 3.0312506,-3.25 c 1.186,5.346 3.5,8.34375 3.5,8.34375 l -5.6875006,6.65625 0,3.34375 0.0625,0 8.7500006,-2.5625 0,5.625 2.9375,0 0,-5.625 8.7500004,2.5625 0.0625,0 0,-3.34375 -5.6875004,-6.65625 c 0,0 2.3150005,-2.99775 3.5000005,-8.34375 l 3.0312499,3.25 0,0.03125 0.03125,0 10.15625,11.03125 0.125,-9.15625 -1.5625,-2.5 0,-6.4062491 -3.25,0 0,1.25 -2.25,-3.5625 0,-4.75 -2.96875,0 -1.9374995,-3.0625 c 0,-8.7070009 -2.4690004,-19.1362509 -4.8750009,-24.2812509 -0.672,-0.341 -2.59575,-0.521 -4.53125008,-0.53125 z m -0.0625,1.65625 c 1.48800008,0 2.72675008,2.7395 3.09375008,6.4375 l -3.12500008,-1 -3.06249992,1 c 0.363,-3.698 1.60175,-6.4375 3.09374992,-6.4375 z m -0.03125,7.625 3.25000008,1 c 0,4.768 -1.44375,5.84375 -3.21875008,5.84375 -1.77499992,0 -3.21874992,-1.07675 -3.21874992,-5.84375 l 3.18749992,-1 z m -12.71875052,14.5625009 -1.625,2.09374994 0,0.96875 3.25,0 0,-0.96875 -1.625,-2.09374994 z m 25.500001,0 -1.625,2.09374994 0,0.96875 3.25,0 0,-0.96875 -1.625,-2.09374994 z m -31,7.0625 -1.625,2.09375 0,0.96875 3.25,0 0,-0.96875 -1.625,-2.09375 z m 36.5,0 -1.625,2.09375 0,0.96875 3.25,0 0,-0.96875 -1.625,-2.09375 z"
         id="polygon7" /></g></g><g
     id="Ebene_1" /></svg>