<?xml version="1.0" encoding="UTF-8" standalone="no"?>
<!-- Created with Inkscape (http://www.inkscape.org/) -->

<svg
   xmlns:dc="http://purl.org/dc/elements/1.1/"
   xmlns:cc="http://creativecommons.org/ns#"
   xmlns:rdf="http://www.w3.org/1999/02/22-rdf-syntax-ns#"
   xmlns:svg="http://www.w3.org/2000/svg"
   xmlns="http://www.w3.org/2000/svg"
   version="1.1"
   width="16"
   height="16"
   id="svg3043"
   xml:space="preserve"><metadata
     id="metadata3055"><rdf:RDF><cc:Work
         rdf:about=""><dc:format>image/svg+xml</dc:format><dc:type
           rdf:resource="http://purl.org/dc/dcmitype/StillImage" /><dc:title></dc:title></cc:Work></rdf:RDF></metadata><defs
     id="defs3053" /><g
     transform="translate(-35.220339,-33.364407)"
     id="iconman_x5F_at_x5F_ca"><g
       id="g3076"><path
         d="m 35.195446,10.880559 -6.262136,8.854369 c 1.911612,-0.881709 4.017786,-1.398058 6.262136,-1.398058 2.243417,0 4.380583,0.516349 6.291262,1.398058 l -6.291262,-8.854369 z m 0,10.485437 c -6.627728,0 -12,5.372272 -12,12 0,6.627728 5.372272,12 12,12 6.627728,0 12,-5.372272 12,-12 0,-6.627728 -5.372272,-12 -12,-12 z m -0.05825,1.368932 7.747572,11.038835 -7.45631,-2.563107 7.45631,10.631068 -7.747572,-2.650485 -7.601942,2.650485 7.310679,-10.631068 -7.310679,2.563107 7.601942,-11.038835 z"
         id="path3046"
         style="fill:#ffffff" /></g></g><g
     id="Ebene_1" /></svg>